<?xml version="1.0" encoding="UTF-8"?>
<!DOCTYPE svg PUBLIC "-//W3C//DTD SVG 1.1//EN" "http://www.w3.org/Graphics/SVG/1.1/DTD/svg11.dtd">
<!-- Creator: CorelDRAW X5 -->
<svg xmlns="http://www.w3.org/2000/svg" xml:space="preserve" width="50px" height="50px" style="shape-rendering:geometricPrecision; text-rendering:geometricPrecision; image-rendering:optimizeQuality; fill-rule:evenodd; clip-rule:evenodd"
viewBox="0 0 50 50"
 xmlns:xlink="http://www.w3.org/1999/xlink"
 version="1.0">
 <defs>
  <style type="text/css">
   <![CDATA[
    .fil0 {fill:black}
   ]]>
  </style>
 </defs>
 <g id="Layer_x0020_1">
  <metadata id="CorelCorpID_0Corel-Layer"/>
  <g id="_391438296">
   <g>
    <path id="_211082128" class="fil0" d="M19.7848 1.41364c-4.56749,0.981076 -8.21513,3.03479 -11.7709,6.5903 -4.84302,4.8433 -7.01947,10.0849 -7.05008,16.9204 0,8.30697 3.801,15.541 10.5447,19.9858 4.65905,3.06512 9.28776,4.35262 14.7439,4.04619 7.14221,-0.367939 13.5792,-3.70915 17.6866,-9.13469 3.24937,-4.23016 4.75146,-8.30697 5.05788,-13.5792 0.674366,-11.8013 -7.38741,-22.4071 -18.8822,-24.8288 -2.66685,-0.551625 -7.78568,-0.551625 -10.3298,0l0 0zm23.5107 20.6601c0.796823,0.796823 0.888949,1.10353 0.888949,2.78931 0,2.20707 -0.30671,2.88143 -1.5327,3.52518 -0.766209,0.39827 -3.2797,0.459782 -17.5947,0.459782 -10.1155,0 -17.0122,-0.122741 -17.472,-0.30671 -1.31812,-0.490396 -2.08433,-2.0231 -1.93125,-3.95407 0.0921264,-1.40996 0.276096,-1.80851 1.10353,-2.54439l0.950461 -0.858052 17.3493 0 17.3495 0 0.888949 0.888949 0 0z"/>
   </g>
  </g>
 </g>
</svg>
