<svg version="1.1" xmlns="http://www.w3.org/2000/svg" xmlns:xlink="http://www.w3.org/1999/xlink" x="0px" y="0px" width="97px"
	 height="97px" viewBox="0 0 97 97" style="overflow:visible;enable-background:new 0 0 97 97;" xml:space="preserve">
<style type="text/css">
	.st0{fill:none;stroke:#FFFFFF;stroke-width:3;stroke-linecap:round;stroke-miterlimit:10;}
</style>
<defs>
</defs>
<g>
	<circle class="st0" cx="48.5" cy="48.5" r="26"/>
	<line class="st0" x1="48.5" y1="1.5" x2="48.5" y2="16.5"/>
	<line class="st0" x1="48.5" y1="80.5" x2="48.5" y2="95.5"/>
	<line class="st0" x1="72" y1="7.8" x2="64.5" y2="20.8"/>
	<line class="st0" x1="32.5" y1="76.2" x2="25" y2="89.2"/>
	<line class="st0" x1="89.3" y1="25.1" x2="76.3" y2="32.6"/>
	<line class="st0" x1="20.7" y1="64.4" x2="7.7" y2="71.9"/>
	<line class="st0" x1="95.5" y1="48.5" x2="80.5" y2="48.5"/>
	<line class="st0" x1="16.5" y1="48.5" x2="1.5" y2="48.5"/>
	<line class="st0" x1="89.2" y1="72" x2="76.2" y2="64.5"/>
	<line class="st0" x1="20.8" y1="32.5" x2="7.8" y2="25"/>
	<line class="st0" x1="71.9" y1="89.3" x2="64.4" y2="76.3"/>
	<line class="st0" x1="32.6" y1="20.7" x2="25.1" y2="7.7"/>
	<line class="st0" x1="38.5" y1="10.5" x2="40.5" y2="17.5"/>
	<line class="st0" x1="56.5" y1="79.5" x2="58.5" y2="86.5"/>
	<line class="st0" x1="58.3" y1="10.5" x2="56.6" y2="17.5"/>
	<line class="st0" x1="40.4" y1="79.5" x2="38.7" y2="86.5"/>
	<line class="st0" x1="76.2" y1="20.6" x2="71.2" y2="25.9"/>
	<line class="st0" x1="25.8" y1="71.1" x2="20.8" y2="76.4"/>
	<line class="st0" x1="86.5" y1="38.5" x2="79.5" y2="40.5"/>
	<line class="st0" x1="17.5" y1="56.5" x2="10.5" y2="58.5"/>
	<line class="st0" x1="86.6" y1="58.2" x2="79.5" y2="56.5"/>
	<line class="st0" x1="17.5" y1="40.5" x2="10.4" y2="38.8"/>
	<line class="st0" x1="76.4" y1="76.1" x2="71.2" y2="71.1"/>
	<line class="st0" x1="25.8" y1="25.9" x2="20.6" y2="20.9"/>
</g>
</svg>
