<svg version="1.1" xmlns="http://www.w3.org/2000/svg" xmlns:xlink="http://www.w3.org/1999/xlink" x="0px" y="0px" width="97px"
	 height="94.5px" viewBox="0 0 97 94.5" style="overflow:visible;enable-background:new 0 0 97 94.5;" xml:space="preserve">
<style type="text/css">
	.st0{fill:none;stroke:#FFFFFF;stroke-width:3;stroke-linecap:round;stroke-miterlimit:10;}
</style>
<defs>
</defs>
<g>
	<line class="st0" x1="9" y1="81" x2="88" y2="81"/>
	<line class="st0" x1="19" y1="87" x2="78" y2="87"/>
	<line class="st0" x1="31" y1="93" x2="66" y2="93"/>
	<g>
		<line class="st0" x1="1.5" y1="48.5" x2="16.5" y2="48.5"/>
		<line class="st0" x1="80.5" y1="48.5" x2="95.5" y2="48.5"/>
	</g>
	<line class="st0" x1="48.7" y1="1.5" x2="48.6" y2="16.5"/>
	<line class="st0" x1="71.8" y1="7.7" x2="64.3" y2="20.7"/>
	<line class="st0" x1="89.4" y1="25.3" x2="76.3" y2="32.7"/>
	<line class="st0" x1="25.1" y1="7.8" x2="32.5" y2="20.8"/>
	<line class="st0" x1="7.6" y1="25.4" x2="20.6" y2="32.8"/>
	<g>
		<line class="st0" x1="9.9" y1="38.2" x2="17.6" y2="40.3"/>
	</g>
	<g>
		<line class="st0" x1="20.3" y1="20.7" x2="25.9" y2="26.4"/>
	</g>
	<g>
		<line class="st0" x1="38.3" y1="10.6" x2="40.3" y2="18.3"/>
	</g>
	<g>
		<line class="st0" x1="58.6" y1="10.8" x2="56.5" y2="18.6"/>
	</g>
	<g>
		<line class="st0" x1="75.7" y1="20.7" x2="70.2" y2="26.5"/>
	</g>
	<g>
		<line class="st0" x1="86.1" y1="38.2" x2="78.4" y2="40.5"/>
	</g>
	<circle class="st0" cx="48.5" cy="48.5" r="26"/>
</g>
</svg>
