<svg version="1.1" xmlns="http://www.w3.org/2000/svg" xmlns:xlink="http://www.w3.org/1999/xlink" x="0px" y="0px" width="564.2px"
	 height="276px" viewBox="0 0 564.2 276" style="overflow:visible;enable-background:new 0 0 564.2 276;" xml:space="preserve">
<style type="text/css">
	.st0{fill:#FFFFFF;}
</style>
<defs>
</defs>
<g>
	<g>
		<ellipse class="st0" cx="282.1" cy="9.69" rx="10.6" ry="9.69"/>
		<path class="st0" d="M285.51,23.2c0,0,44.25-22.04,98.1-17.16l-11.18,10.24c0,0-40.63-2.36-73.38,11.34c0,0,39.68-9.6,66.29-5.04
			l-10.08,9.29c0,0-26.93-2.99-49.44,2.2c0,0,24.09-1.1,42.67,3.78l-8.5,7.87c0,0-14.49-3.62-34.48-2.68
			C305.51,43.04,301.57,31.86,285.51,23.2z"/>
		<path class="st0" d="M285.35,103.77c16.95-8.77,3.46-15.69,3.46-15.69c18.13-9.45,2.05-18.9,2.05-18.9
			c37.63-20.63-7.24-44.72-7.24-44.72C237.64,0.05,180.17,4.62,180.17,4.62l11.44,10.5c46.19-0.84,73.28,11.23,73.28,11.23
			c-39.05-9.03-66.35-5.14-66.35-5.14l10.6,9.66c33.49-3.46,49.24,2.1,49.24,2.1c-30.76-0.42-42.73,3.88-42.73,3.88l8.92,7.56
			c49.24-7.35,62.46,2.31,62.46,2.31c11.76,6.4-4.93,16.48-4.93,16.48c-18.9-11.65-3.15-17.48-3.15-17.48
			c-9.66-2.26-18.69-2.15-18.69-2.15c-8.29,16.27,14.38,26.45,14.38,26.45c10.08,5.3,12.39,7.03,12.39,7.03
			c2.31,1.57,0.88,3.46,0.88,3.46c-2.87,3.78-5.88,5.32-5.88,5.32c-9.33-5.74-5.25-8.48-5.25-8.48l3.43-2.44l-8.68-4.55
			c-12.81,9.94,4.62,18.34,4.62,18.34l8.15,4.41c4.04,1.84,1.57,4.48,1.57,4.48c-0.91,1.4-4.06,3.36-4.06,3.36
			c-9.66-5.88-1.47-8.54-1.47-8.54l-6.72-3.57c0,0-9.63,5.95,1.15,12.81c0,0,7.7,4.06,9.73,5.84c0,0,2.27,1.92,0.91,4.9
			C285.42,112.4,293.16,109.18,285.35,103.77z"/>
		<path class="st0" d="M277.06,104.77l3.52,2.05c0,0-4.78,2.41-2.15,5.98C278.43,112.8,271.23,110.02,277.06,104.77z"/>
		<path class="st0" d="M282.27,116.74c35.38-15.64,41.15-41.15,41.15-41.15c3.36-20.47-22.36-12.81-22.36-12.81
			c-2.63,2.83-7.24,5.98-7.24,5.98s18.27-2.2,16.48,12.39c0,0-2.68,12.6-19.37,27.64c0,0-4.18,4.52-8.66,7.39
			c-0.35,0.23-0.69,0-0.69,0c-4.48-2.87-8.66-7.39-8.66-7.39c-16.69-15.04-19.37-27.64-19.37-27.64
			c-1.78-14.59,16.48-12.39,16.48-12.39s-4.62-3.15-7.24-5.98c0,0-25.72-7.66-22.36,12.81c0,0,5.77,25.51,41.15,41.15
			C281.58,116.74,281.92,116.86,282.27,116.74z"/>
		<g>
			<g>
				<path class="st0" d="M213.48,101.62c0,0-26.3-60.31-50.39-49.13c0,0,18.42,12.75,25.19,52.28c0,0,3.46,23.46,28.34,36.38
					c0,0,30.23,16.69,36.69,18.58c0,0-4.02-9.6-11.69-14.64c0,0-39.01-17.64-49.09-51.49c0,0-7.56-27.24-19.84-38.58
					c0,0,12.91,2.99,22.52,28.34C195.21,83.35,198.05,93.12,213.48,101.62z"/>
			</g>
			<path class="st0" d="M350.72,101.62c0,0,26.3-60.31,50.39-49.13c0,0-18.42,12.75-25.19,52.28c0,0-3.46,23.46-28.34,36.38
				c0,0-30.23,16.69-36.69,18.58c0,0,4.02-9.6,11.69-14.64c0,0,39.01-17.64,49.09-51.49c0,0,7.56-27.24,19.84-38.58
				c0,0-12.91,2.99-22.52,28.34C368.99,83.35,366.16,93.12,350.72,101.62z"/>
			<path class="st0" d="M282.12,135.79c4.3,10.08,8.13,10.39,8.13,10.39c0.63-3.46-0.31-9.76-0.31-9.76
				c-1.73-9.76,26.45-27.64,26.45-27.64c21.89-13.46,23.94-30.15,23.94-30.15c9.13,8.19-4.25,22.75-4.25,22.75
				c-9.6,11.89-7.24,19.29-7.24,19.29s36.69-25.04,7.72-49.13c0,0-4.72,22.83-28.66,36.06c0,0-23.83,10.39-25.77,23.62h-0.04
				c-1.94-13.23-25.77-23.62-25.77-23.62c-23.94-13.23-28.66-36.06-28.66-36.06c-28.97,24.09,7.72,49.13,7.72,49.13
				s2.36-7.4-7.24-19.29c0,0-13.39-14.57-4.25-22.75c0,0,2.05,16.69,23.94,30.15c0,0,28.19,17.87,26.45,27.64
				c0,0-0.95,6.3-0.31,9.76c0,0,3.83-0.31,8.13-10.39L282.12,135.79L282.12,135.79z"/>
		</g>
	</g>
	<g>
		<polygon class="st0" points="0,192.84 0,213.54 16.11,213.54 16.11,274.82 38.67,274.82 38.67,213.54 54.78,213.54 54.78,192.84 
					"/>
		<polygon class="st0" points="537.44,171.18 537.44,173.48 541.74,173.48 541.74,184.48 544.56,184.48 544.56,173.48 
			548.86,173.48 548.86,171.18 		"/>
		<rect x="61.09" y="192.84" class="st0" width="22.33" height="17.48"/>
		<rect x="61.09" y="213.67" class="st0" width="22.33" height="61.15"/>
		<path class="st0" d="M112.36,234.98v39.84H90.54v-61.15h20.34v7.48c0,0,5.2-8.88,16.44-8.88c11.24,0,15.68,9.38,15.68,9.38
			s4.8-9.38,17.87-9.38c13.07,0,16.29,11.39,16.29,11.39s1,3.79,1,6.95s0,44.22,0,44.22h-22.06v-38.78c0,0,0.29-6.52-4.66-6.52
			s-5.94,5.01-5.94,5.01s-0.43,0.86-0.5,4.3v35.98h-21.84v-38.56c0,0,0.29-7.16-5.94-7.16C112.57,229.1,112.36,234.98,112.36,234.98
			z"/>
		<path class="st0" d="M469.79,248.93v-4.85c0-16.31-10.85-31.92-31.31-31.92c-19.6,0-31.31,15.18-31.31,31.92
			c0,17.63,10.75,31.92,32.57,31.92c21.9,0,30.05-15.74,30.05-23.79l-21.37,0.59c-0.7,8.16-9.95,7.52-9.95,7.52
			c-8.43,0-7.57-11.39-7.57-11.39L469.79,248.93L469.79,248.93z M430.87,236.97c0,0-0.97-10.67,7.61-10.67
			c9.58,0,8.43,10.67,8.43,10.67H430.87z"/>
		<path class="st0" d="M247.24,248.93v-4.85c0-16.31-10.85-31.92-31.31-31.92c-19.6,0-31.31,15.18-31.31,31.92
			c0,17.63,10.75,31.92,32.57,31.92c21.9,0,30.05-15.74,30.05-23.79l-21.37,0.59c-0.7,8.16-9.95,7.52-9.95,7.52
			c-8.43,0-7.57-11.39-7.57-11.39L247.24,248.93L247.24,248.93z M208.32,236.97c0,0-0.97-10.67,7.61-10.67
			c9.58,0,8.43,10.67,8.43,10.67H208.32z"/>
		<path class="st0" d="M307.07,228.31c0,0-3.22-16.04-27.07-16.04c-23.85,0-26.1,17.44-26.1,17.44s-2.69,17.4,13,20.95
			c0,0,11.39,2.58,15.57,3.33c0,0,7.25,1.13,7.25,4.19s-6.77,3.44-6.77,3.44s-14.29,1.72-14.72-9.35l-18.8,1.18
			c0,0,1.99,22.56,29.99,22.56c28,0,29.72-17.04,29.72-17.04s4.73-18.12-14.54-23.13c0,0-8.13-1.72-15.15-2.29
			c0,0-7.05-0.57-6.69-3.94c0.4-3.77,9.6-3.01,9.6-3.01s5.84,0.32,7.52,5.05L307.07,228.31z"/>
		<polygon class="st0" points="347.56,192.75 316.73,192.75 316.73,274.71 334.56,274.71 334.56,217.14 349.6,274.61 364.53,274.61 
			378.82,216.92 378.82,274.71 400.95,274.71 400.95,192.75 369.58,192.75 358.84,236.04 		"/>
		<polygon class="st0" points="554.98,171.29 550.64,171.29 550.64,184.48 553.52,184.48 553.52,175.21 555.94,184.47 
			558.34,184.47 561.48,175.18 561.48,184.48 564.2,184.48 564.2,171.29 559.78,171.29 557.42,180.15 		"/>
		<path class="st0" d="M512.85,192.65v25.71c-3.69-4.14-8.35-6.61-13.55-6.61c-12.69,0-23.19,9.91-23.19,32.34
			c0,24.18,10.5,31.92,23.19,31.92c7.4,0,11.49-3.97,14.45-8.59l-0.11,7.52h21.66v-87.51L512.85,192.65z M512.95,250.58
			c0,0-0.22,4.56-1.02,5.8c-1.39,2.45-3.2,3.94-5.18,3.94c-4.55,0-7.32-3.93-7.47-16.22c-0.23-18.73,6.71-16.69,8.44-16.69
			c0,0,5.23-0.04,5.23,9.56V250.58z"/>
	</g>
</g>
</svg>
